<?xml version="1.0" encoding="utf-8"?>
<!-- Generator: Adobe Illustrator 16.0.0, SVG Export Plug-In . SVG Version: 6.00 Build 0)  -->
<!DOCTYPE svg PUBLIC "-//W3C//DTD SVG 1.1//EN" "http://www.w3.org/Graphics/SVG/1.1/DTD/svg11.dtd">
<svg version="1.1" id="Calque_1" xmlns="http://www.w3.org/2000/svg" xmlns:xlink="http://www.w3.org/1999/xlink" x="0px" y="0px"
	 width="355.749px" height="33.205px" viewBox="0 0 355.749 33.205" enable-background="new 0 0 355.749 33.205"
	 xml:space="preserve">
<g>
	<path fill="#FFFFFF" d="M11.758,26.465V6.25h4.088v17.408h4.021v2.807H11.758z"/>
	<path fill="#FFFFFF" d="M21.169,26.465V6.25h8.434v2.809h-4.346v5.514h3.077v2.863h-3.077v6.223h4.346v2.807H21.169z"/>
	<path fill="#FFFFFF" d="M30.367,20.668l4.221-0.795c0,0.411,0.008,0.773,0.024,1.086c0.017,0.314,0.06,0.656,0.129,1.025
		c0.069,0.369,0.163,0.672,0.281,0.906c0.118,0.235,0.285,0.434,0.501,0.594s0.471,0.24,0.765,0.24c0.702,0,1.052-0.515,1.052-1.545
		c0-1.41-0.779-2.813-2.336-4.209l-1.327-1.075c-0.411-0.336-0.738-0.616-0.982-0.84s-0.531-0.526-0.862-0.907
		c-0.331-0.381-0.59-0.748-0.776-1.103c-0.187-0.354-0.347-0.782-0.48-1.282s-0.2-1.029-0.2-1.59c0-1.645,0.54-2.945,1.621-3.902
		c1.081-0.958,2.515-1.437,4.302-1.437c1.417,0,2.622,0.511,3.615,1.531c0.994,1.021,1.491,2.252,1.491,3.693l-0.011,0.146
		c0,0.098,0,0.211,0,0.338l-4.088,0.583c0-0.083,0.005-0.211,0.017-0.386c0.011-0.176,0.017-0.32,0.017-0.432
		c0-0.27-0.021-0.526-0.061-0.772c-0.041-0.247-0.108-0.493-0.202-0.739s-0.238-0.442-0.434-0.588S36.211,8.99,35.935,8.99
		c-0.49,0-0.857,0.176-1.102,0.527c-0.245,0.351-0.367,0.765-0.367,1.242c0,0.418,0.065,0.811,0.196,1.176
		c0.131,0.365,0.329,0.707,0.594,1.024c0.265,0.317,0.509,0.581,0.733,0.79s0.522,0.464,0.896,0.766
		c0.373,0.303,0.641,0.525,0.802,0.666c0.593,0.508,1.093,0.984,1.501,1.428c0.408,0.445,0.793,0.947,1.155,1.506
		c0.362,0.561,0.633,1.165,0.814,1.814c0.181,0.649,0.271,1.352,0.271,2.104c0,1.421-0.501,2.583-1.502,3.489
		c-1.001,0.904-2.218,1.357-3.65,1.357c-0.971,0-1.834-0.173-2.588-0.518c-0.754-0.346-1.362-0.814-1.824-1.406
		c-0.462-0.594-0.818-1.25-1.066-1.971C30.55,22.267,30.406,21.494,30.367,20.668z"/>
	<path fill="#FFFFFF" d="M47.494,26.465V6.25h4.166c1.33,0,2.425,0.122,3.286,0.365c0.86,0.244,1.536,0.645,2.027,1.201
		c0.492,0.559,0.831,1.227,1.02,2.006c0.188,0.778,0.283,1.77,0.283,2.976v6.626c0,0.719-0.022,1.346-0.067,1.881
		s-0.128,1.06-0.25,1.572c-0.122,0.514-0.288,0.947-0.499,1.303c-0.211,0.355-0.482,0.688-0.814,0.994s-0.733,0.551-1.202,0.73
		c-0.469,0.18-1.019,0.318-1.65,0.415c-0.632,0.097-1.357,0.146-2.177,0.146H47.494z M51.582,23.602
		c0.391,0,0.699-0.006,0.925-0.018c0.226-0.01,0.451-0.039,0.677-0.084s0.391-0.106,0.496-0.186
		c0.105-0.078,0.203-0.192,0.293-0.342c0.09-0.15,0.148-0.328,0.175-0.534s0.04-0.463,0.04-0.771V10.777
		c0-0.666-0.199-1.108-0.598-1.326c-0.399-0.217-1.068-0.33-2.008-0.337V23.602z"/>
	<path fill="#FFFFFF" d="M60.476,18.952V6.25h4.088v12.578c0,0.719,0.004,1.242,0.011,1.566c0.007,0.326,0.026,0.723,0.056,1.191
		c0.03,0.468,0.083,0.795,0.157,0.982s0.178,0.389,0.309,0.606c0.131,0.218,0.301,0.359,0.511,0.427s0.464,0.102,0.764,0.102
		s0.554-0.034,0.764-0.102s0.38-0.207,0.511-0.422c0.131-0.213,0.234-0.413,0.309-0.6c0.075-0.188,0.127-0.512,0.157-0.973
		c0.03-0.459,0.049-0.85,0.056-1.168c0.007-0.317,0.011-0.832,0.011-1.543c0-0.03,0-0.053,0-0.068V6.25h4.088v12.702
		c0,0.644-0.019,1.228-0.056,1.752s-0.108,1.067-0.213,1.628c-0.105,0.562-0.247,1.059-0.427,1.488
		c-0.18,0.431-0.419,0.842-0.719,1.236c-0.299,0.393-0.653,0.717-1.061,0.971c-0.408,0.254-0.9,0.457-1.477,0.606
		s-1.224,0.225-1.943,0.225s-1.366-0.075-1.943-0.225s-1.067-0.353-1.471-0.606s-0.756-0.578-1.056-0.971
		c-0.299-0.395-0.539-0.806-0.719-1.236c-0.18-0.43-0.324-0.926-0.433-1.488c-0.108-0.561-0.181-1.104-0.219-1.628
		S60.476,19.596,60.476,18.952z"/>
	<path fill="#FFFFFF" d="M74.582,26.465V6.25h8.434v2.809h-4.346v5.514h3.077v2.863h-3.077v6.223h4.346v2.807H74.582z"/>
	<path fill="#FFFFFF" d="M84.476,26.465V6.25h4.088v17.408h4.021v2.807H84.476z"/>
	<path fill="#FFFFFF" d="M93.19,20.668l4.221-0.795c0,0.411,0.008,0.773,0.024,1.086c0.017,0.314,0.06,0.656,0.129,1.025
		c0.069,0.369,0.163,0.672,0.281,0.906c0.118,0.235,0.285,0.434,0.501,0.594s0.471,0.24,0.765,0.24c0.702,0,1.052-0.515,1.052-1.545
		c0-1.41-0.779-2.813-2.336-4.209l-1.327-1.075c-0.411-0.336-0.738-0.616-0.982-0.84s-0.531-0.526-0.862-0.907
		c-0.331-0.381-0.59-0.748-0.776-1.103c-0.187-0.354-0.347-0.782-0.48-1.282s-0.2-1.029-0.2-1.59c0-1.645,0.54-2.945,1.621-3.902
		c1.081-0.958,2.515-1.437,4.302-1.437c1.417,0,2.622,0.511,3.615,1.531c0.994,1.021,1.491,2.252,1.491,3.693l-0.011,0.146
		c0,0.098,0,0.211,0,0.338l-4.088,0.583c0-0.083,0.005-0.211,0.017-0.386c0.011-0.176,0.017-0.32,0.017-0.432
		c0-0.27-0.021-0.526-0.061-0.772c-0.041-0.247-0.108-0.493-0.202-0.739s-0.238-0.442-0.434-0.588S99.035,8.99,98.758,8.99
		c-0.49,0-0.857,0.176-1.102,0.527c-0.245,0.351-0.367,0.765-0.367,1.242c0,0.418,0.065,0.811,0.196,1.176
		c0.131,0.365,0.329,0.707,0.594,1.024c0.265,0.317,0.509,0.581,0.733,0.79s0.522,0.464,0.896,0.766
		c0.373,0.303,0.641,0.525,0.802,0.666c0.593,0.508,1.093,0.984,1.501,1.428c0.408,0.445,0.793,0.947,1.155,1.506
		c0.362,0.561,0.633,1.165,0.814,1.814c0.181,0.649,0.271,1.352,0.271,2.104c0,1.421-0.501,2.583-1.502,3.489
		c-1.001,0.904-2.218,1.357-3.65,1.357c-0.971,0-1.834-0.173-2.588-0.518c-0.754-0.346-1.362-0.814-1.824-1.406
		c-0.462-0.594-0.818-1.25-1.066-1.971C93.373,22.267,93.229,21.494,93.19,20.668z"/>
</g>
<g>
	<path fill="#FFFFFF" d="M127.597,10.002c0-0.598,0.103-1.156,0.308-1.677c0.205-0.52,0.486-0.963,0.844-1.331
		c0.357-0.367,0.787-0.656,1.289-0.867s1.04-0.316,1.614-0.316c0.891,0,1.664,0.189,2.32,0.568l0.047,1.746h-0.744l-0.24-1.417
		c-0.375-0.2-0.783-0.3-1.225-0.3c-0.406,0-0.784,0.078-1.134,0.234c-0.35,0.157-0.656,0.383-0.92,0.679s-0.472,0.673-0.624,1.134
		c-0.152,0.459-0.229,0.976-0.229,1.547c0,1.146,0.259,2.033,0.776,2.66s1.2,0.941,2.048,0.941c0.508,0,0.982-0.107,1.424-0.322
		l0.24-1.396h0.744l-0.047,1.742c-0.703,0.383-1.51,0.574-2.42,0.574c-0.797,0-1.505-0.178-2.124-0.533s-1.099-0.851-1.438-1.487
		C127.767,11.545,127.597,10.818,127.597,10.002z"/>
	<path fill="#FFFFFF" d="M134.903,6.244V5.811l1.84-0.539l0.164,0.094L136.86,7.07v2.174c0.297-0.336,0.645-0.606,1.043-0.812
		s0.783-0.308,1.154-0.308c0.52,0,0.903,0.177,1.151,0.53s0.372,0.917,0.372,1.69V11.5c0,0.484,0.008,1.125,0.024,1.922l0.849,0.164
		v0.434h-2.795v-0.434l0.89-0.152c0.016-0.797,0.024-1.441,0.024-1.934v-1.055c0-0.543-0.074-0.921-0.223-1.134
		s-0.402-0.319-0.762-0.319c-0.289,0-0.564,0.06-0.826,0.179s-0.551,0.319-0.867,0.601V11.5c0,0.484,0.008,1.125,0.023,1.922
		l0.832,0.164v0.434h-2.789v-0.434l0.902-0.164c0.016-0.795,0.023-1.436,0.023-1.919V6.36L134.903,6.244z"/>
	<path fill="#FFFFFF" d="M142.351,12.678c0-0.244,0.052-0.461,0.156-0.65c0.104-0.188,0.305-0.383,0.604-0.585
		s0.711-0.396,1.235-0.583c0.431-0.155,0.884-0.285,1.362-0.391v-0.332c0-0.567-0.088-0.953-0.266-1.156
		c-0.177-0.203-0.481-0.305-0.912-0.305c-0.224,0-0.435,0.023-0.635,0.07l-0.25,0.83c-0.095,0.388-0.284,0.582-0.567,0.582
		c-0.167,0-0.298-0.047-0.395-0.14c-0.097-0.093-0.155-0.22-0.175-0.378c0.112-0.463,0.374-0.83,0.787-1.104s0.92-0.411,1.521-0.411
		c0.653,0,1.133,0.164,1.439,0.491c0.307,0.328,0.46,0.864,0.46,1.61v2.58c0,0.488,0.131,0.732,0.393,0.732
		c0.16,0,0.309-0.074,0.445-0.223l0.059-0.064l0.24,0.287c-0.129,0.229-0.271,0.387-0.425,0.471s-0.337,0.127-0.548,0.127
		c-0.332,0-0.595-0.081-0.788-0.243s-0.313-0.388-0.36-0.677c-0.382,0.367-0.697,0.623-0.945,0.768s-0.545,0.217-0.891,0.217
		c-0.442,0-0.81-0.134-1.104-0.401S142.351,13.158,142.351,12.678z M143.429,12.496c0,0.262,0.075,0.473,0.225,0.633
		c0.165,0.188,0.39,0.281,0.675,0.281c0.191,0,0.366-0.041,0.524-0.123c0.159-0.082,0.443-0.262,0.854-0.539v-1.846
		c-0.386,0.105-0.754,0.225-1.104,0.357c-0.246,0.098-0.451,0.201-0.617,0.311s-0.287,0.22-0.362,0.331
		c-0.076,0.111-0.127,0.212-0.155,0.302S143.429,12.391,143.429,12.496z"/>
	<path fill="#FFFFFF" d="M148.456,11.225c0-0.91,0.239-1.654,0.718-2.232s1.079-0.867,1.802-0.867c0.633,0,1.186,0.277,1.658,0.832
		l0.814-0.832l0.193,0.123l-0.035,1.613v4.491c0,0.421,0.008,1.064,0.023,1.931l0.961,0.168v0.434h-3.088v-0.434l1.107-0.18
		c0.016-0.863,0.023-1.5,0.023-1.912v-1.107c-0.449,0.633-1.025,0.949-1.729,0.949c-0.73,0-1.321-0.276-1.772-0.829
		S148.456,12.104,148.456,11.225z M149.534,11.201c0,0.758,0.152,1.333,0.457,1.726s0.709,0.589,1.213,0.589
		c0.262,0,0.5-0.06,0.715-0.179s0.441-0.312,0.68-0.577V9.473c-0.504-0.441-0.973-0.662-1.406-0.662
		c-0.477,0-0.872,0.204-1.187,0.612S149.534,10.424,149.534,11.201z"/>
	<path fill="#FFFFFF" d="M154.896,8.852V8.418l1.764-0.17l0.123,0.117l-0.064,1.682v1.887c0,0.508,0.077,0.868,0.231,1.081
		s0.397,0.319,0.729,0.319c0.574,0,1.135-0.256,1.682-0.767l0.035-3.534l-0.85-0.182V8.418l1.74-0.17l0.117,0.117l-0.035,1.682
		v3.375l0.814,0.164v0.434l-1.664,0.117l-0.123-1.066c-0.621,0.754-1.328,1.131-2.121,1.131c-0.512,0-0.9-0.17-1.166-0.51
		c-0.266-0.336-0.398-0.874-0.398-1.615c0-0.012,0-0.023,0-0.035l0.041-3.008L154.896,8.852z"/>
	<path fill="#FFFFFF" d="M162.032,11.225c0-0.898,0.268-1.64,0.805-2.224s1.188-0.876,1.953-0.876c0.645,0,1.18,0.211,1.607,0.633
		c0.426,0.422,0.64,0.988,0.64,1.697c0,0.25-0.028,0.466-0.083,0.646h-3.843c0.012,0.73,0.191,1.3,0.537,1.708
		c0.347,0.408,0.815,0.612,1.406,0.612c0.357,0,0.667-0.071,0.929-0.214c0.261-0.143,0.512-0.353,0.751-0.63l0.291,0.229
		c-0.232,0.441-0.543,0.784-0.935,1.028s-0.852,0.366-1.382,0.366c-0.812,0-1.461-0.268-1.947-0.803S162.032,12.139,162.032,11.225z
		 M163.134,10.609h2.184c0.266,0,0.451-0.055,0.555-0.166c0.104-0.109,0.156-0.264,0.156-0.461c0-0.351-0.126-0.656-0.379-0.916
		c-0.252-0.261-0.562-0.391-0.93-0.391c-0.384,0-0.729,0.16-1.034,0.479C163.38,9.475,163.196,9.959,163.134,10.609z"/>
	<path fill="#FFFFFF" d="M170.944,12.424h0.609l0.292,1.033c0.284,0.129,0.622,0.193,1.013,0.193c0.444,0,0.78-0.083,1.008-0.25
		c0.228-0.166,0.342-0.391,0.342-0.677c0-0.243-0.089-0.442-0.266-0.602c-0.178-0.158-0.463-0.31-0.856-0.454l-0.555-0.193
		c-0.999-0.356-1.499-0.891-1.499-1.602c0-0.48,0.198-0.891,0.594-1.234c0.396-0.342,0.91-0.514,1.542-0.514
		c0.587,0,1.156,0.162,1.707,0.486l-0.058,1.227h-0.645l-0.193-0.963c-0.261-0.133-0.536-0.199-0.824-0.199
		c-0.358,0-0.634,0.077-0.827,0.232c-0.193,0.154-0.289,0.367-0.289,0.642c0,0.235,0.08,0.423,0.24,0.566
		c0.16,0.143,0.448,0.29,0.865,0.442l0.368,0.135c0.589,0.216,1.021,0.468,1.293,0.758c0.273,0.289,0.41,0.629,0.41,1.02
		c0,0.481-0.209,0.891-0.627,1.227c-0.417,0.336-1.002,0.504-1.754,0.504c-0.615,0-1.229-0.152-1.844-0.457L170.944,12.424z"/>
	<path fill="#FFFFFF" d="M176.147,11.225c0-0.898,0.268-1.64,0.805-2.224s1.188-0.876,1.953-0.876c0.645,0,1.18,0.211,1.607,0.633
		c0.426,0.422,0.64,0.988,0.64,1.697c0,0.25-0.028,0.466-0.083,0.646h-3.843c0.012,0.73,0.191,1.3,0.537,1.708
		c0.347,0.408,0.815,0.612,1.406,0.612c0.357,0,0.667-0.071,0.929-0.214c0.261-0.143,0.512-0.353,0.751-0.63l0.291,0.229
		c-0.232,0.441-0.543,0.784-0.935,1.028s-0.852,0.366-1.382,0.366c-0.812,0-1.461-0.268-1.947-0.803S176.147,12.139,176.147,11.225z
		 M177.249,10.609h2.184c0.266,0,0.451-0.055,0.555-0.166c0.104-0.109,0.156-0.264,0.156-0.461c0-0.351-0.126-0.656-0.379-0.916
		c-0.252-0.261-0.562-0.391-0.93-0.391c-0.384,0-0.729,0.16-1.034,0.479C177.496,9.475,177.312,9.959,177.249,10.609z"/>
	<path fill="#FFFFFF" d="M182.112,9.279V8.857l1.668-0.732l0.18,0.123l0.092,0.961c0.293-0.328,0.628-0.591,1.004-0.788
		c0.376-0.197,0.744-0.296,1.104-0.296c0.383,0,0.692,0.091,0.926,0.272s0.399,0.468,0.493,0.858
		c0.305-0.371,0.648-0.652,1.027-0.844c0.38-0.191,0.766-0.287,1.157-0.287c1.024,0,1.536,0.701,1.536,2.104V11.5
		c0,0.484,0.008,1.125,0.023,1.922l0.844,0.164v0.434h-2.783v-0.434l0.885-0.164c0.016-0.781,0.023-1.422,0.023-1.922v-1.078
		c0-0.539-0.078-0.912-0.235-1.119s-0.415-0.311-0.775-0.311c-0.513,0-1.049,0.252-1.609,0.756c0.016,0.242,0.023,0.441,0.023,0.598
		V11.5c0,0.484,0.008,1.125,0.023,1.922l0.838,0.164v0.434h-2.783v-0.434l0.891-0.164c0.016-0.781,0.023-1.422,0.023-1.922v-1.055
		c0-0.539-0.074-0.916-0.223-1.131s-0.403-0.322-0.763-0.322c-0.274,0-0.535,0.057-0.781,0.17s-0.519,0.297-0.816,0.551V11.5
		c0,0.484,0.008,1.125,0.024,1.922l0.837,0.164v0.434h-2.795v-0.434l0.896-0.164c0.02-0.996,0.03-1.637,0.03-1.922v-0.615
		c0-0.441-0.014-0.941-0.041-1.5L182.112,9.279z"/>
	<path fill="#FFFFFF" d="M193.052,12.678c0-0.244,0.052-0.461,0.156-0.65c0.104-0.188,0.305-0.383,0.604-0.585
		s0.711-0.396,1.235-0.583c0.431-0.155,0.884-0.285,1.362-0.391v-0.332c0-0.567-0.088-0.953-0.266-1.156
		c-0.177-0.203-0.481-0.305-0.912-0.305c-0.224,0-0.435,0.023-0.635,0.07l-0.25,0.83c-0.095,0.388-0.284,0.582-0.567,0.582
		c-0.167,0-0.298-0.047-0.395-0.14c-0.097-0.093-0.155-0.22-0.175-0.378c0.112-0.463,0.374-0.83,0.787-1.104s0.92-0.411,1.521-0.411
		c0.653,0,1.133,0.164,1.439,0.491c0.307,0.328,0.46,0.864,0.46,1.61v2.58c0,0.488,0.131,0.732,0.393,0.732
		c0.16,0,0.309-0.074,0.445-0.223l0.059-0.064l0.24,0.287c-0.129,0.229-0.271,0.387-0.425,0.471s-0.337,0.127-0.548,0.127
		c-0.332,0-0.595-0.081-0.788-0.243s-0.313-0.388-0.36-0.677c-0.382,0.367-0.697,0.623-0.945,0.768s-0.545,0.217-0.891,0.217
		c-0.442,0-0.81-0.134-1.104-0.401S193.052,13.158,193.052,12.678z M194.13,12.496c0,0.262,0.075,0.473,0.225,0.633
		c0.165,0.188,0.39,0.281,0.675,0.281c0.191,0,0.366-0.041,0.524-0.123c0.159-0.082,0.443-0.262,0.854-0.539v-1.846
		c-0.386,0.105-0.754,0.225-1.104,0.357c-0.246,0.098-0.451,0.201-0.617,0.311s-0.287,0.22-0.362,0.331
		c-0.076,0.111-0.127,0.212-0.155,0.302S194.13,12.391,194.13,12.496z"/>
	<path fill="#FFFFFF" d="M198.952,9.279V8.857l1.865-0.732l0.18,0.123l-0.041,1.629V11.5c0,0.285,0.01,0.926,0.03,1.922l0.837,0.164
		v0.434h-2.783v-0.434l0.885-0.164c0.016-0.797,0.023-1.438,0.023-1.922v-0.598c0-0.531-0.012-1.037-0.036-1.518L198.952,9.279z
		 M199.638,6.074c0-0.23,0.076-0.416,0.227-0.557c0.152-0.141,0.346-0.211,0.582-0.211c0.225,0,0.415,0.07,0.57,0.211
		c0.155,0.141,0.232,0.326,0.232,0.557c0,0.219-0.078,0.401-0.232,0.548c-0.155,0.146-0.345,0.22-0.57,0.22
		c-0.232,0-0.425-0.072-0.579-0.217C199.714,6.48,199.638,6.297,199.638,6.074z"/>
	<path fill="#FFFFFF" d="M202.603,9.279V8.857l1.668-0.732l0.18,0.123l0.092,0.973c0.297-0.332,0.639-0.598,1.024-0.797
		c0.386-0.199,0.762-0.299,1.13-0.299c0.523,0,0.911,0.177,1.161,0.53c0.25,0.354,0.375,0.917,0.375,1.69V11.5
		c0,0.484,0.008,1.125,0.023,1.922l0.844,0.164v0.434h-2.783v-0.434l0.885-0.164c0.016-0.781,0.023-1.422,0.023-1.922v-1.055
		c0-0.543-0.076-0.921-0.229-1.134s-0.409-0.319-0.769-0.319c-0.274,0-0.538,0.057-0.79,0.17s-0.534,0.297-0.843,0.551V11.5
		c0,0.484,0.008,1.125,0.024,1.922l0.837,0.164v0.434h-2.795v-0.434l0.896-0.164c0.02-0.996,0.03-1.637,0.03-1.922v-0.615
		c0-0.441-0.014-0.941-0.041-1.5L202.603,9.279z"/>
	<path fill="#FFFFFF" d="M210.026,11.225c0-0.898,0.268-1.64,0.805-2.224s1.188-0.876,1.953-0.876c0.645,0,1.18,0.211,1.607,0.633
		c0.426,0.422,0.64,0.988,0.64,1.697c0,0.25-0.028,0.466-0.083,0.646h-3.843c0.012,0.73,0.191,1.3,0.537,1.708
		c0.347,0.408,0.815,0.612,1.406,0.612c0.357,0,0.667-0.071,0.929-0.214c0.261-0.143,0.512-0.353,0.751-0.63l0.291,0.229
		c-0.232,0.441-0.543,0.784-0.935,1.028s-0.852,0.366-1.382,0.366c-0.812,0-1.461-0.268-1.947-0.803S210.026,12.139,210.026,11.225z
		 M211.128,10.609h2.184c0.266,0,0.451-0.055,0.555-0.166c0.104-0.109,0.156-0.264,0.156-0.461c0-0.351-0.126-0.656-0.379-0.916
		c-0.252-0.261-0.562-0.391-0.93-0.391c-0.384,0-0.729,0.16-1.034,0.479C211.375,9.475,211.19,9.959,211.128,10.609z"/>
	<path fill="#FFFFFF" d="M215.306,16.322c0.93-0.469,1.518-1.092,1.764-1.869l-0.439-0.352c-0.305-0.238-0.457-0.525-0.457-0.861
		c0-0.219,0.064-0.399,0.193-0.542s0.312-0.214,0.551-0.214c0.246,0,0.494,0.115,0.744,0.346c0.086,0.273,0.129,0.562,0.129,0.867
		c0,0.352-0.065,0.692-0.196,1.022s-0.307,0.623-0.527,0.879s-0.467,0.481-0.738,0.677s-0.556,0.348-0.853,0.457L215.306,16.322z"/>
	<path fill="#FFFFFF" d="M221.927,14.02v-0.434l0.961-0.164c0.016-0.865,0.023-1.505,0.023-1.918V6.361l-0.984-0.117V5.811
		l1.875-0.539l0.164,0.094l-0.047,1.705v4.43c0,0.43,0.008,1.07,0.023,1.922l0.961,0.164v0.434H221.927z"/>
	<path fill="#FFFFFF" d="M225.442,5.934c0-0.504,0.219-0.756,0.656-0.756c0.434,0,0.65,0.252,0.65,0.756
		c0,0.109-0.013,0.271-0.037,0.483c-0.025,0.213-0.05,0.402-0.074,0.568c-0.025,0.166-0.058,0.374-0.099,0.624
		c-0.042,0.25-0.064,0.387-0.068,0.41l-0.142,0.85h-0.465l-0.142-0.85c-0.004-0.023-0.027-0.16-0.068-0.41s-0.074-0.458-0.099-0.624
		c-0.024-0.166-0.049-0.355-0.074-0.568S225.442,6.043,225.442,5.934z"/>
	<path fill="#FFFFFF" d="M227.37,10c0-0.512,0.068-0.993,0.205-1.444s0.323-0.842,0.56-1.172s0.51-0.615,0.82-0.855
		s0.646-0.42,1.005-0.539s0.725-0.179,1.096-0.179c0.466,0,0.916,0.092,1.347,0.275c0.431,0.184,0.82,0.446,1.166,0.788
		s0.623,0.783,0.831,1.324s0.312,1.142,0.312,1.802c0,0.516-0.067,0.999-0.201,1.45s-0.319,0.843-0.554,1.175
		c-0.235,0.332-0.507,0.617-0.816,0.855s-0.641,0.418-0.997,0.539c-0.355,0.121-0.718,0.182-1.087,0.182
		c-0.379,0-0.746-0.057-1.102-0.17s-0.689-0.287-1.002-0.521s-0.586-0.515-0.82-0.841s-0.42-0.719-0.557-1.178
		S227.37,10.535,227.37,10z M228.677,10c0,0.47,0.047,0.914,0.141,1.332c0.094,0.419,0.233,0.801,0.419,1.145
		s0.435,0.618,0.747,0.822c0.312,0.203,0.67,0.305,1.072,0.305c0.324,0,0.619-0.067,0.885-0.203
		c0.266-0.135,0.487-0.315,0.665-0.542c0.178-0.228,0.328-0.496,0.451-0.808c0.123-0.311,0.212-0.637,0.267-0.979
		s0.082-0.7,0.082-1.071s-0.027-0.728-0.082-1.068c-0.055-0.34-0.144-0.665-0.267-0.975c-0.123-0.309-0.273-0.576-0.451-0.804
		c-0.178-0.227-0.399-0.407-0.665-0.542c-0.266-0.136-0.561-0.203-0.885-0.203c-0.402,0-0.76,0.102-1.072,0.305
		c-0.312,0.204-0.562,0.477-0.747,0.819s-0.325,0.723-0.419,1.142C228.724,9.092,228.677,9.534,228.677,10z"/>
	<path fill="#FFFFFF" d="M235.585,6.244V5.811l1.84-0.539l0.164,0.094l-0.047,1.705v1.98c0.555-0.617,1.17-0.926,1.846-0.926
		c0.651,0,1.193,0.271,1.627,0.814c0.435,0.543,0.652,1.268,0.652,2.174c0,0.914-0.234,1.657-0.702,2.229
		c-0.467,0.572-1.056,0.858-1.765,0.858c-0.652,0-1.205-0.285-1.658-0.855l-0.094,0.791l-1.805-0.117v-0.434l0.902-0.164
		c0.016-0.795,0.023-1.436,0.023-1.919V6.36L235.585,6.244z M237.577,12.842c0.473,0.449,0.949,0.674,1.43,0.674
		c0.453,0,0.83-0.199,1.131-0.598s0.451-0.967,0.451-1.705c0-0.754-0.139-1.343-0.416-1.767s-0.646-0.636-1.107-0.636
		c-0.43,0-0.926,0.232-1.488,0.697V12.842z"/>
	<path fill="#FFFFFF" d="M242.769,12.424h0.609l0.292,1.033c0.284,0.129,0.622,0.193,1.013,0.193c0.444,0,0.78-0.083,1.008-0.25
		c0.228-0.166,0.342-0.391,0.342-0.677c0-0.243-0.089-0.442-0.266-0.602c-0.178-0.158-0.463-0.31-0.856-0.454l-0.555-0.193
		c-0.999-0.356-1.499-0.891-1.499-1.602c0-0.48,0.198-0.891,0.594-1.234c0.396-0.342,0.91-0.514,1.542-0.514
		c0.587,0,1.156,0.162,1.707,0.486l-0.058,1.227h-0.645l-0.193-0.963c-0.261-0.133-0.536-0.199-0.824-0.199
		c-0.358,0-0.634,0.077-0.827,0.232c-0.193,0.154-0.289,0.367-0.289,0.642c0,0.235,0.08,0.423,0.24,0.566
		c0.16,0.143,0.448,0.29,0.865,0.442l0.368,0.135c0.589,0.216,1.021,0.468,1.293,0.758c0.273,0.289,0.41,0.629,0.41,1.02
		c0,0.481-0.209,0.891-0.627,1.227c-0.417,0.336-1.002,0.504-1.754,0.504c-0.615,0-1.229-0.152-1.844-0.457L242.769,12.424z"/>
	<path fill="#FFFFFF" d="M250.614,9.279V8.857l1.668-0.732l0.179,0.123l0.133,1.43c0.203-0.484,0.46-0.864,0.771-1.14
		s0.63-0.413,0.958-0.413c0.199,0,0.378,0.051,0.536,0.152s0.251,0.248,0.278,0.439c0,0.199-0.067,0.358-0.202,0.478
		s-0.308,0.179-0.519,0.179c-0.258,0-0.486-0.1-0.686-0.299l-0.094-0.094c-0.469,0.34-0.812,0.867-1.031,1.582V11.5
		c0,0.477,0.008,1.113,0.024,1.91l0.996,0.176v0.434h-2.93v-0.434l0.873-0.152c0.02-0.996,0.03-1.641,0.03-1.934v-0.615
		c0-0.441-0.014-0.941-0.041-1.5L250.614,9.279z"/>
	<path fill="#FFFFFF" d="M255.683,12.678c0-0.244,0.052-0.461,0.156-0.65c0.104-0.188,0.305-0.383,0.604-0.585
		s0.711-0.396,1.235-0.583c0.431-0.155,0.884-0.285,1.362-0.391v-0.332c0-0.567-0.088-0.953-0.266-1.156
		c-0.177-0.203-0.481-0.305-0.912-0.305c-0.224,0-0.435,0.023-0.635,0.07l-0.25,0.83c-0.095,0.388-0.284,0.582-0.567,0.582
		c-0.167,0-0.298-0.047-0.395-0.14c-0.097-0.093-0.155-0.22-0.175-0.378c0.112-0.463,0.374-0.83,0.787-1.104s0.92-0.411,1.521-0.411
		c0.653,0,1.133,0.164,1.439,0.491c0.307,0.328,0.46,0.864,0.46,1.61v2.58c0,0.488,0.131,0.732,0.393,0.732
		c0.16,0,0.309-0.074,0.445-0.223l0.059-0.064l0.24,0.287c-0.129,0.229-0.271,0.387-0.425,0.471s-0.337,0.127-0.548,0.127
		c-0.332,0-0.595-0.081-0.788-0.243s-0.313-0.388-0.36-0.677c-0.382,0.367-0.697,0.623-0.945,0.768s-0.545,0.217-0.891,0.217
		c-0.442,0-0.81-0.134-1.104-0.401S255.683,13.158,255.683,12.678z M256.761,12.496c0,0.262,0.075,0.473,0.225,0.633
		c0.165,0.188,0.39,0.281,0.675,0.281c0.191,0,0.366-0.041,0.524-0.123c0.159-0.082,0.443-0.262,0.854-0.539v-1.846
		c-0.386,0.105-0.754,0.225-1.104,0.357c-0.246,0.098-0.451,0.201-0.617,0.311s-0.287,0.22-0.362,0.331
		c-0.076,0.111-0.127,0.212-0.155,0.302S256.761,12.391,256.761,12.496z"/>
	<path fill="#FFFFFF" d="M261.812,11.187c0-0.46,0.078-0.886,0.233-1.276c0.156-0.39,0.362-0.713,0.62-0.969
		c0.258-0.256,0.554-0.455,0.888-0.6s0.685-0.217,1.05-0.217c0.516,0,0.967,0.148,1.354,0.443c0.388,0.297,0.619,0.668,0.694,1.117
		c-0.055,0.303-0.227,0.455-0.516,0.455c-0.326,0-0.533-0.192-0.621-0.576l-0.216-0.795c-0.203-0.062-0.417-0.094-0.643-0.094
		c-0.522,0-0.947,0.211-1.274,0.631c-0.328,0.42-0.491,1.006-0.491,1.757c0,0.739,0.175,1.317,0.526,1.733
		c0.351,0.417,0.811,0.625,1.379,0.625c0.335,0,0.643-0.081,0.923-0.244c0.281-0.162,0.509-0.39,0.686-0.683l0.282,0.158
		c-0.162,0.501-0.428,0.884-0.797,1.149s-0.826,0.398-1.369,0.398c-0.83,0-1.489-0.271-1.977-0.815
		C262.056,12.843,261.812,12.109,261.812,11.187z"/>
	<path fill="#FFFFFF" d="M267.642,11.169c0-0.476,0.078-0.909,0.234-1.303c0.156-0.394,0.364-0.715,0.623-0.964
		c0.259-0.25,0.551-0.441,0.875-0.576c0.323-0.134,0.661-0.201,1.014-0.201c0.352,0,0.692,0.067,1.021,0.201
		c0.328,0.135,0.623,0.326,0.882,0.576c0.26,0.249,0.468,0.57,0.625,0.964c0.157,0.394,0.235,0.827,0.235,1.303
		c0,0.481-0.077,0.919-0.232,1.311c-0.154,0.392-0.361,0.711-0.622,0.958c-0.26,0.246-0.554,0.436-0.882,0.566
		c-0.329,0.132-0.671,0.197-1.027,0.197c-0.356,0-0.696-0.065-1.02-0.197c-0.324-0.131-0.615-0.318-0.875-0.563
		s-0.466-0.564-0.62-0.958S267.642,11.65,267.642,11.169z M268.778,11.181c0,0.8,0.139,1.411,0.417,1.835
		c0.277,0.423,0.675,0.635,1.191,0.635c0.524,0,0.926-0.212,1.206-0.635c0.28-0.424,0.42-1.035,0.42-1.835
		c0-0.808-0.14-1.427-0.42-1.858c-0.28-0.431-0.682-0.646-1.206-0.646c-0.517,0-0.914,0.216-1.191,0.646
		C268.917,9.754,268.778,10.373,268.778,11.181z"/>
	<path fill="#FFFFFF" d="M274.099,9.279V8.857l1.668-0.732l0.18,0.123l0.092,0.973c0.297-0.332,0.639-0.598,1.024-0.797
		c0.386-0.199,0.762-0.299,1.13-0.299c0.523,0,0.911,0.177,1.161,0.53c0.25,0.354,0.375,0.917,0.375,1.69V11.5
		c0,0.484,0.008,1.125,0.023,1.922l0.844,0.164v0.434h-2.783v-0.434l0.885-0.164c0.016-0.781,0.023-1.422,0.023-1.922v-1.055
		c0-0.543-0.076-0.921-0.229-1.134s-0.409-0.319-0.769-0.319c-0.274,0-0.538,0.057-0.79,0.17s-0.534,0.297-0.843,0.551V11.5
		c0,0.484,0.008,1.125,0.024,1.922l0.837,0.164v0.434h-2.795v-0.434l0.896-0.164c0.02-0.996,0.03-1.637,0.03-1.922v-0.615
		c0-0.441-0.014-0.941-0.041-1.5L274.099,9.279z"/>
	<path fill="#FFFFFF" d="M280.995,8.939V8.389l1.082-0.07l0.301-1.67h0.721l-0.059,1.693h1.617v0.598h-1.646v3.708
		c0,0.595,0.221,0.892,0.662,0.892c0.238,0,0.506-0.109,0.803-0.326l0.293,0.326c-0.324,0.398-0.797,0.598-1.418,0.598
		c-0.431,0-0.766-0.112-1.003-0.336c-0.238-0.225-0.356-0.563-0.356-1.017c0-0.087,0.002-0.237,0.006-0.452
		c0.004-0.213,0.006-0.407,0.006-0.582V8.939H280.995z"/>
	<path fill="#FFFFFF" d="M285.36,11.225c0-0.898,0.268-1.64,0.805-2.224s1.188-0.876,1.953-0.876c0.645,0,1.18,0.211,1.607,0.633
		c0.426,0.422,0.64,0.988,0.64,1.697c0,0.25-0.028,0.466-0.083,0.646h-3.843c0.012,0.73,0.191,1.3,0.537,1.708
		c0.347,0.408,0.815,0.612,1.406,0.612c0.357,0,0.667-0.071,0.929-0.214c0.261-0.143,0.512-0.353,0.751-0.63l0.291,0.229
		c-0.232,0.441-0.543,0.784-0.935,1.028s-0.852,0.366-1.382,0.366c-0.812,0-1.461-0.268-1.947-0.803S285.36,12.139,285.36,11.225z
		 M286.462,10.609h2.184c0.266,0,0.451-0.055,0.555-0.166c0.104-0.109,0.156-0.264,0.156-0.461c0-0.351-0.126-0.656-0.379-0.916
		c-0.252-0.261-0.562-0.391-0.93-0.391c-0.384,0-0.729,0.16-1.034,0.479C286.708,9.475,286.524,9.959,286.462,10.609z"/>
	<path fill="#FFFFFF" d="M294.009,8.852V8.418l1.764-0.17l0.123,0.117l-0.064,1.682v1.887c0,0.508,0.077,0.868,0.231,1.081
		s0.397,0.319,0.729,0.319c0.574,0,1.135-0.256,1.682-0.767l0.035-3.534l-0.85-0.182V8.418l1.74-0.17l0.117,0.117l-0.035,1.682
		v3.375l0.814,0.164v0.434l-1.664,0.117l-0.123-1.066c-0.621,0.754-1.328,1.131-2.121,1.131c-0.512,0-0.9-0.17-1.166-0.51
		c-0.266-0.336-0.398-0.874-0.398-1.615c0-0.012,0-0.023,0-0.035l0.041-3.008L294.009,8.852z"/>
	<path fill="#FFFFFF" d="M301.11,9.279V8.857l1.668-0.732l0.18,0.123l0.092,0.973c0.297-0.332,0.639-0.598,1.024-0.797
		c0.386-0.199,0.762-0.299,1.13-0.299c0.523,0,0.911,0.177,1.161,0.53c0.25,0.354,0.375,0.917,0.375,1.69V11.5
		c0,0.484,0.008,1.125,0.023,1.922l0.844,0.164v0.434h-2.783v-0.434l0.885-0.164c0.016-0.781,0.023-1.422,0.023-1.922v-1.055
		c0-0.543-0.076-0.921-0.229-1.134s-0.409-0.319-0.769-0.319c-0.274,0-0.538,0.057-0.79,0.17s-0.534,0.297-0.843,0.551V11.5
		c0,0.484,0.008,1.125,0.024,1.922l0.837,0.164v0.434h-2.795v-0.434l0.896-0.164c0.02-0.996,0.03-1.637,0.03-1.922v-0.615
		c0-0.441-0.014-0.941-0.041-1.5L301.11,9.279z"/>
	<path fill="#FFFFFF" d="M311.306,11.225c0-0.91,0.241-1.654,0.724-2.232s1.093-0.867,1.831-0.867c0.602,0,1.127,0.262,1.576,0.785
		V6.36l-1.02-0.116V5.811l1.869-0.539l0.17,0.094l-0.047,1.705v6.363l0.967,0.152v0.434l-1.857,0.117l-0.082-0.814
		c-0.441,0.586-1.002,0.879-1.682,0.879c-0.73,0-1.321-0.276-1.772-0.829S311.306,12.104,311.306,11.225z M312.384,11.201
		c0,0.758,0.152,1.333,0.457,1.726s0.709,0.589,1.213,0.589c0.262,0,0.495-0.054,0.7-0.161s0.421-0.286,0.647-0.536V9.449
		c-0.488-0.426-0.941-0.639-1.359-0.639c-0.477,0-0.872,0.204-1.187,0.612S312.384,10.424,312.384,11.201z"/>
	<path fill="#FFFFFF" d="M317.751,8.852V8.418l1.764-0.17l0.123,0.117l-0.064,1.682v1.887c0,0.508,0.077,0.868,0.231,1.081
		s0.397,0.319,0.729,0.319c0.574,0,1.135-0.256,1.682-0.767l0.035-3.534l-0.85-0.182V8.418l1.74-0.17l0.117,0.117l-0.035,1.682
		v3.375l0.814,0.164v0.434l-1.664,0.117l-0.123-1.066c-0.621,0.754-1.328,1.131-2.121,1.131c-0.512,0-0.9-0.17-1.166-0.51
		c-0.266-0.336-0.398-0.874-0.398-1.615c0-0.012,0-0.023,0-0.035l0.041-3.008L317.751,8.852z"/>
	<path fill="#FFFFFF" d="M324.888,11.225c0-0.898,0.268-1.64,0.805-2.224s1.188-0.876,1.953-0.876c0.645,0,1.18,0.211,1.607,0.633
		c0.426,0.422,0.64,0.988,0.64,1.697c0,0.25-0.028,0.466-0.083,0.646h-3.843c0.012,0.73,0.191,1.3,0.537,1.708
		c0.347,0.408,0.815,0.612,1.406,0.612c0.357,0,0.667-0.071,0.929-0.214c0.261-0.143,0.512-0.353,0.751-0.63l0.291,0.229
		c-0.232,0.441-0.543,0.784-0.935,1.028s-0.852,0.366-1.382,0.366c-0.812,0-1.461-0.268-1.947-0.803S324.888,12.139,324.888,11.225z
		 M325.989,10.609h2.184c0.266,0,0.451-0.055,0.555-0.166c0.104-0.109,0.156-0.264,0.156-0.461c0-0.351-0.126-0.656-0.379-0.916
		c-0.252-0.261-0.562-0.391-0.93-0.391c-0.384,0-0.729,0.16-1.034,0.479C326.236,9.475,326.052,9.959,325.989,10.609z"/>
	<path fill="#FFFFFF" d="M330.624,14.02v-0.434l0.961-0.164c0.016-0.865,0.023-1.505,0.023-1.918V6.361l-0.984-0.117V5.811
		l1.875-0.539l0.164,0.094l-0.047,1.705v4.43c0,0.43,0.008,1.07,0.023,1.922l0.961,0.164v0.434H330.624z"/>
	<path fill="#FFFFFF" d="M116.628,25.678c0-0.244,0.052-0.461,0.156-0.65c0.104-0.188,0.305-0.383,0.604-0.585
		s0.711-0.396,1.235-0.583c0.431-0.155,0.884-0.285,1.362-0.391v-0.332c0-0.567-0.088-0.953-0.266-1.156
		c-0.177-0.203-0.481-0.305-0.912-0.305c-0.224,0-0.435,0.023-0.635,0.07l-0.25,0.83c-0.095,0.388-0.284,0.582-0.567,0.582
		c-0.167,0-0.298-0.047-0.395-0.14c-0.097-0.093-0.155-0.22-0.175-0.378c0.112-0.463,0.374-0.83,0.787-1.104s0.92-0.411,1.521-0.411
		c0.653,0,1.133,0.164,1.439,0.491c0.307,0.328,0.46,0.864,0.46,1.61v2.58c0,0.488,0.131,0.732,0.393,0.732
		c0.16,0,0.309-0.074,0.445-0.223l0.059-0.064l0.24,0.287c-0.129,0.229-0.271,0.387-0.425,0.471s-0.337,0.127-0.548,0.127
		c-0.332,0-0.595-0.081-0.788-0.243s-0.313-0.388-0.36-0.677c-0.382,0.367-0.697,0.623-0.945,0.768s-0.545,0.217-0.891,0.217
		c-0.442,0-0.81-0.134-1.104-0.401S116.628,26.158,116.628,25.678z M117.706,25.496c0,0.262,0.075,0.473,0.225,0.633
		c0.165,0.188,0.39,0.281,0.675,0.281c0.191,0,0.366-0.041,0.524-0.123c0.159-0.082,0.443-0.262,0.854-0.539v-1.846
		c-0.386,0.105-0.754,0.225-1.104,0.357c-0.246,0.098-0.451,0.201-0.617,0.311s-0.287,0.22-0.362,0.331
		c-0.076,0.111-0.127,0.212-0.155,0.302S117.706,25.391,117.706,25.496z"/>
	<path fill="#FFFFFF" d="M122.493,21.852v-0.434l1.764-0.17l0.123,0.117l-0.064,1.682v1.887c0,0.508,0.077,0.868,0.231,1.081
		s0.397,0.319,0.729,0.319c0.574,0,1.135-0.256,1.682-0.767l0.035-3.534l-0.85-0.182v-0.434l1.74-0.17l0.117,0.117l-0.035,1.682
		v3.375l0.814,0.164v0.434l-1.664,0.117l-0.123-1.066c-0.621,0.754-1.328,1.131-2.121,1.131c-0.512,0-0.9-0.17-1.166-0.51
		c-0.266-0.336-0.398-0.874-0.398-1.615c0-0.012,0-0.023,0-0.035l0.041-3.008L122.493,21.852z"/>
	<path fill="#FFFFFF" d="M132.542,24.187c0-0.46,0.078-0.886,0.233-1.276c0.156-0.39,0.362-0.713,0.62-0.969
		c0.258-0.256,0.554-0.455,0.888-0.6s0.685-0.217,1.05-0.217c0.516,0,0.967,0.148,1.354,0.443c0.388,0.297,0.619,0.668,0.694,1.117
		c-0.055,0.303-0.227,0.455-0.516,0.455c-0.326,0-0.533-0.192-0.621-0.576l-0.216-0.795c-0.203-0.062-0.417-0.094-0.643-0.094
		c-0.522,0-0.947,0.211-1.274,0.631c-0.328,0.42-0.491,1.006-0.491,1.757c0,0.739,0.175,1.317,0.526,1.733
		c0.351,0.417,0.811,0.625,1.379,0.625c0.335,0,0.643-0.081,0.923-0.244c0.281-0.162,0.509-0.39,0.686-0.683l0.282,0.158
		c-0.162,0.501-0.428,0.884-0.797,1.149s-0.826,0.398-1.369,0.398c-0.83,0-1.489-0.271-1.977-0.815
		C132.786,25.843,132.542,25.109,132.542,24.187z"/>
	<path fill="#FFFFFF" d="M138.372,24.169c0-0.476,0.078-0.909,0.234-1.303c0.156-0.394,0.364-0.715,0.623-0.964
		c0.259-0.25,0.551-0.441,0.875-0.576c0.323-0.134,0.661-0.201,1.014-0.201c0.352,0,0.692,0.067,1.021,0.201
		c0.328,0.135,0.623,0.326,0.882,0.576c0.26,0.249,0.468,0.57,0.625,0.964c0.157,0.394,0.235,0.827,0.235,1.303
		c0,0.481-0.077,0.919-0.232,1.311c-0.154,0.392-0.361,0.711-0.622,0.958c-0.26,0.246-0.554,0.436-0.882,0.566
		c-0.329,0.132-0.671,0.197-1.027,0.197c-0.356,0-0.696-0.065-1.02-0.197c-0.324-0.131-0.615-0.318-0.875-0.563
		s-0.466-0.564-0.62-0.958S138.372,24.65,138.372,24.169z M139.509,24.181c0,0.8,0.139,1.411,0.417,1.835
		c0.277,0.423,0.675,0.635,1.191,0.635c0.524,0,0.926-0.212,1.206-0.635c0.28-0.424,0.42-1.035,0.42-1.835
		c0-0.808-0.14-1.427-0.42-1.858c-0.28-0.431-0.682-0.646-1.206-0.646c-0.517,0-0.914,0.216-1.191,0.646
		C139.647,22.754,139.509,23.373,139.509,24.181z"/>
	<path fill="#FFFFFF" d="M144.601,21.852v-0.434l1.764-0.17l0.123,0.117l-0.064,1.682v1.887c0,0.508,0.077,0.868,0.231,1.081
		s0.397,0.319,0.729,0.319c0.574,0,1.135-0.256,1.682-0.767l0.035-3.534l-0.85-0.182v-0.434l1.74-0.17l0.117,0.117l-0.035,1.682
		v3.375l0.814,0.164v0.434l-1.664,0.117l-0.123-1.066c-0.621,0.754-1.328,1.131-2.121,1.131c-0.512,0-0.9-0.17-1.166-0.51
		c-0.266-0.336-0.398-0.874-0.398-1.615c0-0.012,0-0.023,0-0.035l0.041-3.008L144.601,21.852z"/>
	<path fill="#FFFFFF" d="M151.386,21.939v-0.551l1.082-0.07l0.301-1.67h0.721l-0.059,1.693h1.617v0.598h-1.646v3.708
		c0,0.595,0.221,0.892,0.662,0.892c0.238,0,0.506-0.109,0.803-0.326l0.293,0.326c-0.324,0.398-0.797,0.598-1.418,0.598
		c-0.431,0-0.766-0.112-1.003-0.336c-0.238-0.225-0.356-0.563-0.356-1.017c0-0.087,0.002-0.237,0.006-0.452
		c0.004-0.213,0.006-0.407,0.006-0.582v-2.811H151.386z"/>
	<path fill="#FFFFFF" d="M155.751,24.225c0-0.898,0.268-1.64,0.805-2.224s1.188-0.876,1.953-0.876c0.645,0,1.18,0.211,1.607,0.633
		c0.426,0.422,0.64,0.988,0.64,1.697c0,0.25-0.028,0.466-0.083,0.646h-3.843c0.012,0.73,0.191,1.3,0.537,1.708
		c0.347,0.408,0.815,0.612,1.406,0.612c0.357,0,0.667-0.071,0.929-0.214c0.261-0.143,0.512-0.353,0.751-0.63l0.291,0.229
		c-0.232,0.441-0.543,0.784-0.935,1.028s-0.852,0.366-1.382,0.366c-0.812,0-1.461-0.268-1.947-0.803S155.751,25.139,155.751,24.225z
		 M156.853,23.609h2.184c0.266,0,0.451-0.055,0.555-0.166c0.104-0.109,0.156-0.264,0.156-0.461c0-0.351-0.126-0.656-0.379-0.916
		c-0.252-0.261-0.562-0.391-0.93-0.391c-0.384,0-0.729,0.16-1.034,0.479C157.099,22.475,156.915,22.959,156.853,23.609z"/>
	<path fill="#FFFFFF" d="M161.728,25.678c0-0.244,0.052-0.461,0.156-0.65c0.104-0.188,0.305-0.383,0.604-0.585
		s0.711-0.396,1.235-0.583c0.431-0.155,0.884-0.285,1.362-0.391v-0.332c0-0.567-0.088-0.953-0.266-1.156
		c-0.177-0.203-0.481-0.305-0.912-0.305c-0.224,0-0.435,0.023-0.635,0.07l-0.25,0.83c-0.095,0.388-0.284,0.582-0.567,0.582
		c-0.167,0-0.298-0.047-0.395-0.14c-0.097-0.093-0.155-0.22-0.175-0.378c0.112-0.463,0.374-0.83,0.787-1.104s0.92-0.411,1.521-0.411
		c0.653,0,1.133,0.164,1.439,0.491c0.307,0.328,0.46,0.864,0.46,1.61v2.58c0,0.488,0.131,0.732,0.393,0.732
		c0.16,0,0.309-0.074,0.445-0.223l0.059-0.064l0.24,0.287c-0.129,0.229-0.271,0.387-0.425,0.471s-0.337,0.127-0.548,0.127
		c-0.332,0-0.595-0.081-0.788-0.243s-0.313-0.388-0.36-0.677c-0.382,0.367-0.697,0.623-0.945,0.768s-0.545,0.217-0.891,0.217
		c-0.442,0-0.81-0.134-1.104-0.401S161.728,26.158,161.728,25.678z M162.806,25.496c0,0.262,0.075,0.473,0.225,0.633
		c0.165,0.188,0.39,0.281,0.675,0.281c0.191,0,0.366-0.041,0.524-0.123c0.159-0.082,0.443-0.262,0.854-0.539v-1.846
		c-0.386,0.105-0.754,0.225-1.104,0.357c-0.246,0.098-0.451,0.201-0.617,0.311s-0.287,0.22-0.362,0.331
		c-0.076,0.111-0.127,0.212-0.155,0.302S162.806,25.391,162.806,25.496z"/>
	<path fill="#FFFFFF" d="M167.593,21.852v-0.434l1.764-0.17l0.123,0.117l-0.064,1.682v1.887c0,0.508,0.077,0.868,0.231,1.081
		s0.397,0.319,0.729,0.319c0.574,0,1.135-0.256,1.682-0.767l0.035-3.534l-0.85-0.182v-0.434l1.74-0.17l0.117,0.117l-0.035,1.682
		v3.375l0.814,0.164v0.434l-1.664,0.117l-0.123-1.066c-0.621,0.754-1.328,1.131-2.121,1.131c-0.512,0-0.9-0.17-1.166-0.51
		c-0.266-0.336-0.398-0.874-0.398-1.615c0-0.012,0-0.023,0-0.035l0.041-3.008L167.593,21.852z"/>
	<path fill="#FFFFFF" d="M177.642,24.225c0-0.898,0.268-1.64,0.805-2.224s1.188-0.876,1.953-0.876c0.645,0,1.18,0.211,1.607,0.633
		c0.426,0.422,0.64,0.988,0.64,1.697c0,0.25-0.028,0.466-0.083,0.646h-3.843c0.012,0.73,0.191,1.3,0.537,1.708
		c0.347,0.408,0.815,0.612,1.406,0.612c0.357,0,0.667-0.071,0.929-0.214c0.261-0.143,0.512-0.353,0.751-0.63l0.291,0.229
		c-0.232,0.441-0.543,0.784-0.935,1.028s-0.852,0.366-1.382,0.366c-0.812,0-1.461-0.268-1.947-0.803S177.642,25.139,177.642,24.225z
		 M178.743,23.609h2.184c0.266,0,0.451-0.055,0.555-0.166c0.104-0.109,0.156-0.264,0.156-0.461c0-0.351-0.126-0.656-0.379-0.916
		c-0.252-0.261-0.562-0.391-0.93-0.391c-0.384,0-0.729,0.16-1.034,0.479C178.99,22.475,178.806,22.959,178.743,23.609z"/>
	<path fill="#FFFFFF" d="M183.606,22.279v-0.422l1.668-0.732l0.18,0.123l0.092,0.973c0.297-0.332,0.639-0.598,1.024-0.797
		c0.386-0.199,0.762-0.299,1.13-0.299c0.523,0,0.911,0.177,1.161,0.53c0.25,0.354,0.375,0.917,0.375,1.69V24.5
		c0,0.484,0.008,1.125,0.023,1.922l0.844,0.164v0.434h-2.783v-0.434l0.885-0.164c0.016-0.781,0.023-1.422,0.023-1.922v-1.055
		c0-0.543-0.076-0.921-0.229-1.134s-0.409-0.319-0.769-0.319c-0.274,0-0.538,0.057-0.79,0.17s-0.534,0.297-0.843,0.551V24.5
		c0,0.484,0.008,1.125,0.024,1.922l0.837,0.164v0.434h-2.795v-0.434l0.896-0.164c0.02-0.996,0.03-1.637,0.03-1.922v-0.615
		c0-0.441-0.014-0.941-0.041-1.5L183.606,22.279z"/>
	<path fill="#FFFFFF" d="M190.503,21.939v-0.551l1.082-0.07l0.301-1.67h0.721l-0.059,1.693h1.617v0.598h-1.646v3.708
		c0,0.595,0.221,0.892,0.662,0.892c0.238,0,0.506-0.109,0.803-0.326l0.293,0.326c-0.324,0.398-0.797,0.598-1.418,0.598
		c-0.431,0-0.766-0.112-1.003-0.336c-0.238-0.225-0.356-0.563-0.356-1.017c0-0.087,0.002-0.237,0.006-0.452
		c0.004-0.213,0.006-0.407,0.006-0.582v-2.811H190.503z"/>
	<path fill="#FFFFFF" d="M194.716,22.279v-0.422l1.668-0.732l0.179,0.123l0.133,1.43c0.203-0.484,0.46-0.864,0.771-1.14
		s0.63-0.413,0.958-0.413c0.199,0,0.378,0.051,0.536,0.152s0.251,0.248,0.278,0.439c0,0.199-0.067,0.358-0.202,0.478
		s-0.308,0.179-0.519,0.179c-0.258,0-0.486-0.1-0.686-0.299l-0.094-0.094c-0.469,0.34-0.812,0.867-1.031,1.582V24.5
		c0,0.477,0.008,1.113,0.024,1.91l0.996,0.176v0.434h-2.93v-0.434l0.873-0.152c0.02-0.996,0.03-1.641,0.03-1.934v-0.615
		c0-0.441-0.014-0.941-0.041-1.5L194.716,22.279z"/>
	<path fill="#FFFFFF" d="M199.825,24.225c0-0.898,0.268-1.64,0.805-2.224s1.188-0.876,1.953-0.876c0.645,0,1.18,0.211,1.607,0.633
		c0.426,0.422,0.64,0.988,0.64,1.697c0,0.25-0.028,0.466-0.083,0.646h-3.843c0.012,0.73,0.191,1.3,0.537,1.708
		c0.347,0.408,0.815,0.612,1.406,0.612c0.357,0,0.667-0.071,0.929-0.214c0.261-0.143,0.512-0.353,0.751-0.63l0.291,0.229
		c-0.232,0.441-0.543,0.784-0.935,1.028s-0.852,0.366-1.382,0.366c-0.812,0-1.461-0.268-1.947-0.803S199.825,25.139,199.825,24.225z
		 M200.927,23.609h2.184c0.266,0,0.451-0.055,0.555-0.166c0.104-0.109,0.156-0.264,0.156-0.461c0-0.351-0.126-0.656-0.379-0.916
		c-0.252-0.261-0.562-0.391-0.93-0.391c-0.384,0-0.729,0.16-1.034,0.479C201.173,22.475,200.989,22.959,200.927,23.609z"/>
	<path fill="#FFFFFF" d="M208.737,24.187c0-0.46,0.078-0.886,0.233-1.276c0.156-0.39,0.362-0.713,0.62-0.969
		c0.258-0.256,0.554-0.455,0.888-0.6s0.685-0.217,1.05-0.217c0.516,0,0.967,0.148,1.354,0.443c0.388,0.297,0.619,0.668,0.694,1.117
		c-0.055,0.303-0.227,0.455-0.516,0.455c-0.326,0-0.533-0.192-0.621-0.576l-0.216-0.795c-0.203-0.062-0.417-0.094-0.643-0.094
		c-0.522,0-0.947,0.211-1.274,0.631c-0.328,0.42-0.491,1.006-0.491,1.757c0,0.739,0.175,1.317,0.526,1.733
		c0.351,0.417,0.811,0.625,1.379,0.625c0.335,0,0.643-0.081,0.923-0.244c0.281-0.162,0.509-0.39,0.686-0.683l0.282,0.158
		c-0.162,0.501-0.428,0.884-0.797,1.149s-0.826,0.398-1.369,0.398c-0.83,0-1.489-0.271-1.977-0.815
		C208.981,25.843,208.737,25.109,208.737,24.187z"/>
	<path fill="#FFFFFF" d="M214.591,24.225c0-0.898,0.268-1.64,0.805-2.224s1.188-0.876,1.953-0.876c0.645,0,1.18,0.211,1.607,0.633
		c0.426,0.422,0.64,0.988,0.64,1.697c0,0.25-0.028,0.466-0.083,0.646h-3.843c0.012,0.73,0.191,1.3,0.537,1.708
		c0.347,0.408,0.815,0.612,1.406,0.612c0.357,0,0.667-0.071,0.929-0.214c0.261-0.143,0.512-0.353,0.751-0.63l0.291,0.229
		c-0.232,0.441-0.543,0.784-0.935,1.028s-0.852,0.366-1.382,0.366c-0.812,0-1.461-0.268-1.947-0.803S214.591,25.139,214.591,24.225z
		 M215.692,23.609h2.184c0.266,0,0.451-0.055,0.555-0.166c0.104-0.109,0.156-0.264,0.156-0.461c0-0.351-0.126-0.656-0.379-0.916
		c-0.252-0.261-0.562-0.391-0.93-0.391c-0.384,0-0.729,0.16-1.034,0.479C215.939,22.475,215.755,22.959,215.692,23.609z"/>
	<path fill="#FFFFFF" d="M220.444,21.852v-0.434l1.764-0.17l0.123,0.117l-0.064,1.682v1.887c0,0.508,0.077,0.868,0.231,1.081
		s0.397,0.319,0.729,0.319c0.574,0,1.135-0.256,1.682-0.767l0.035-3.534l-0.85-0.182v-0.434l1.74-0.17l0.117,0.117l-0.035,1.682
		v3.375l0.814,0.164v0.434l-1.664,0.117l-0.123-1.066c-0.621,0.754-1.328,1.131-2.121,1.131c-0.512,0-0.9-0.17-1.166-0.51
		c-0.266-0.336-0.398-0.874-0.398-1.615c0-0.012,0-0.023,0-0.035l0.041-3.008L220.444,21.852z"/>
	<path fill="#FFFFFF" d="M227.253,27.02v-0.434l0.762-0.141l1.664-2.174l-1.617-2.326l-0.744-0.111v-0.492h2.578v0.492l-0.674,0.111
		l1.107,1.652l1.201-1.629l-0.773-0.135v-0.492h2.139v0.492l-0.662,0.123l-1.605,2.074l1.67,2.414l0.791,0.141v0.434h-2.818v-0.434
		l0.826-0.152l-1.143-1.729l-1.248,1.729l0.867,0.152v0.434H227.253z"/>
	<path fill="#FFFFFF" d="M236.54,24.225c0-0.91,0.239-1.654,0.718-2.232s1.079-0.867,1.802-0.867c0.633,0,1.186,0.277,1.658,0.832
		l0.814-0.832l0.193,0.123l-0.035,1.613v4.491c0,0.421,0.008,1.064,0.023,1.931l0.961,0.168v0.434h-3.088v-0.434l1.107-0.18
		c0.016-0.863,0.023-1.5,0.023-1.912v-1.107c-0.449,0.633-1.025,0.949-1.729,0.949c-0.73,0-1.321-0.276-1.772-0.829
		S236.54,25.104,236.54,24.225z M237.618,24.201c0,0.758,0.152,1.333,0.457,1.726s0.709,0.589,1.213,0.589
		c0.262,0,0.5-0.06,0.715-0.179s0.441-0.312,0.68-0.577v-3.287c-0.504-0.441-0.973-0.662-1.406-0.662
		c-0.477,0-0.872,0.204-1.187,0.612S237.618,23.424,237.618,24.201z"/>
	<path fill="#FFFFFF" d="M242.979,21.852v-0.434l1.764-0.17l0.123,0.117l-0.064,1.682v1.887c0,0.508,0.077,0.868,0.231,1.081
		s0.397,0.319,0.729,0.319c0.574,0,1.135-0.256,1.682-0.767l0.035-3.534l-0.85-0.182v-0.434l1.74-0.17l0.117,0.117l-0.035,1.682
		v3.375l0.814,0.164v0.434l-1.664,0.117l-0.123-1.066c-0.621,0.754-1.328,1.131-2.121,1.131c-0.512,0-0.9-0.17-1.166-0.51
		c-0.266-0.336-0.398-0.874-0.398-1.615c0-0.012,0-0.023,0-0.035l0.041-3.008L242.979,21.852z"/>
	<path fill="#FFFFFF" d="M250.116,24.225c0-0.898,0.268-1.64,0.805-2.224s1.188-0.876,1.953-0.876c0.645,0,1.18,0.211,1.607,0.633
		c0.426,0.422,0.64,0.988,0.64,1.697c0,0.25-0.028,0.466-0.083,0.646h-3.843c0.012,0.73,0.191,1.3,0.537,1.708
		c0.347,0.408,0.815,0.612,1.406,0.612c0.357,0,0.667-0.071,0.929-0.214c0.261-0.143,0.512-0.353,0.751-0.63l0.291,0.229
		c-0.232,0.441-0.543,0.784-0.935,1.028s-0.852,0.366-1.382,0.366c-0.812,0-1.461-0.268-1.947-0.803S250.116,25.139,250.116,24.225z
		 M251.218,23.609h2.184c0.266,0,0.451-0.055,0.555-0.166c0.104-0.109,0.156-0.264,0.156-0.461c0-0.351-0.126-0.656-0.379-0.916
		c-0.252-0.261-0.562-0.391-0.93-0.391c-0.384,0-0.729,0.16-1.034,0.479C251.464,22.475,251.28,22.959,251.218,23.609z"/>
	<path fill="#FFFFFF" d="M258.765,27.02v-0.434l0.961-0.164c0.016-0.865,0.023-1.505,0.023-1.918v-5.143l-0.984-0.117v-0.434
		l1.875-0.539l0.164,0.094l-0.047,1.705v4.43c0,0.43,0.008,1.07,0.023,1.922l0.961,0.164v0.434H258.765z"/>
	<path fill="#FFFFFF" d="M262.017,21.377c0.32-0.262,0.566-0.492,0.738-0.691s0.318-0.447,0.439-0.744l-0.352-0.316
		c-0.312-0.273-0.469-0.568-0.469-0.885c0-0.234,0.062-0.411,0.188-0.53s0.299-0.179,0.521-0.179c0.262,0,0.479,0.08,0.65,0.24
		c0.109,0.273,0.164,0.557,0.164,0.85c0,0.496-0.155,0.975-0.466,1.436s-0.706,0.844-1.187,1.148L262.017,21.377z"/>
	<path fill="#FFFFFF" d="M264.044,25.678c0-0.244,0.052-0.461,0.156-0.65c0.104-0.188,0.305-0.383,0.604-0.585
		s0.711-0.396,1.235-0.583c0.431-0.155,0.884-0.285,1.362-0.391v-0.332c0-0.567-0.088-0.953-0.266-1.156
		c-0.177-0.203-0.481-0.305-0.912-0.305c-0.224,0-0.435,0.023-0.635,0.07l-0.25,0.83c-0.095,0.388-0.284,0.582-0.567,0.582
		c-0.167,0-0.298-0.047-0.395-0.14c-0.097-0.093-0.155-0.22-0.175-0.378c0.112-0.463,0.374-0.83,0.787-1.104s0.92-0.411,1.521-0.411
		c0.653,0,1.133,0.164,1.439,0.491c0.307,0.328,0.46,0.864,0.46,1.61v2.58c0,0.488,0.131,0.732,0.393,0.732
		c0.16,0,0.309-0.074,0.445-0.223l0.059-0.064l0.24,0.287c-0.129,0.229-0.271,0.387-0.425,0.471s-0.337,0.127-0.548,0.127
		c-0.332,0-0.595-0.081-0.788-0.243s-0.313-0.388-0.36-0.677c-0.382,0.367-0.697,0.623-0.945,0.768s-0.545,0.217-0.891,0.217
		c-0.442,0-0.81-0.134-1.104-0.401S264.044,26.158,264.044,25.678z M265.122,25.496c0,0.262,0.075,0.473,0.225,0.633
		c0.165,0.188,0.39,0.281,0.675,0.281c0.191,0,0.366-0.041,0.524-0.123c0.159-0.082,0.443-0.262,0.854-0.539v-1.846
		c-0.386,0.105-0.754,0.225-1.104,0.357c-0.246,0.098-0.451,0.201-0.617,0.311s-0.287,0.22-0.362,0.331
		c-0.076,0.111-0.127,0.212-0.155,0.302S265.122,25.391,265.122,25.496z"/>
	<path fill="#FFFFFF" d="M270.173,24.187c0-0.46,0.078-0.886,0.233-1.276c0.156-0.39,0.362-0.713,0.62-0.969
		c0.258-0.256,0.554-0.455,0.888-0.6s0.685-0.217,1.05-0.217c0.516,0,0.967,0.148,1.354,0.443c0.388,0.297,0.619,0.668,0.694,1.117
		c-0.055,0.303-0.227,0.455-0.516,0.455c-0.326,0-0.533-0.192-0.621-0.576l-0.216-0.795c-0.203-0.062-0.417-0.094-0.643-0.094
		c-0.522,0-0.947,0.211-1.274,0.631c-0.328,0.42-0.491,1.006-0.491,1.757c0,0.739,0.175,1.317,0.526,1.733
		c0.351,0.417,0.811,0.625,1.379,0.625c0.335,0,0.643-0.081,0.923-0.244c0.281-0.162,0.509-0.39,0.686-0.683l0.282,0.158
		c-0.162,0.501-0.428,0.884-0.797,1.149s-0.826,0.398-1.369,0.398c-0.83,0-1.489-0.271-1.977-0.815
		C270.417,25.843,270.173,25.109,270.173,24.187z"/>
	<path fill="#FFFFFF" d="M275.558,21.939v-0.551l1.082-0.07l0.301-1.67h0.721l-0.059,1.693h1.617v0.598h-1.646v3.708
		c0,0.595,0.221,0.892,0.662,0.892c0.238,0,0.506-0.109,0.803-0.326l0.293,0.326c-0.324,0.398-0.797,0.598-1.418,0.598
		c-0.431,0-0.766-0.112-1.003-0.336c-0.238-0.225-0.356-0.563-0.356-1.017c0-0.087,0.002-0.237,0.006-0.452
		c0.004-0.213,0.006-0.407,0.006-0.582v-2.811H275.558z"/>
	<path fill="#FFFFFF" d="M279.659,21.852v-0.434l1.764-0.17l0.123,0.117l-0.064,1.682v1.887c0,0.508,0.077,0.868,0.231,1.081
		s0.397,0.319,0.729,0.319c0.574,0,1.135-0.256,1.682-0.767l0.035-3.534l-0.85-0.182v-0.434l1.74-0.17l0.117,0.117l-0.035,1.682
		v3.375l0.814,0.164v0.434l-1.664,0.117l-0.123-1.066c-0.621,0.754-1.328,1.131-2.121,1.131c-0.512,0-0.9-0.17-1.166-0.51
		c-0.266-0.336-0.398-0.874-0.398-1.615c0-0.012,0-0.023,0-0.035l0.041-3.008L279.659,21.852z"/>
	<path fill="#FFFFFF" d="M289.685,25.678c0-0.244,0.052-0.461,0.156-0.65c0.104-0.188,0.305-0.383,0.604-0.585
		s0.711-0.396,1.235-0.583c0.431-0.155,0.884-0.285,1.362-0.391v-0.332c0-0.567-0.088-0.953-0.266-1.156
		c-0.177-0.203-0.481-0.305-0.912-0.305c-0.224,0-0.435,0.023-0.635,0.07l-0.25,0.83c-0.095,0.388-0.284,0.582-0.567,0.582
		c-0.167,0-0.298-0.047-0.395-0.14c-0.097-0.093-0.155-0.22-0.175-0.378c0.112-0.463,0.374-0.83,0.787-1.104s0.92-0.411,1.521-0.411
		c0.653,0,1.133,0.164,1.439,0.491c0.307,0.328,0.46,0.864,0.46,1.61v2.58c0,0.488,0.131,0.732,0.393,0.732
		c0.16,0,0.309-0.074,0.445-0.223l0.059-0.064l0.24,0.287c-0.129,0.229-0.271,0.387-0.425,0.471s-0.337,0.127-0.548,0.127
		c-0.332,0-0.595-0.081-0.788-0.243s-0.313-0.388-0.36-0.677c-0.382,0.367-0.697,0.623-0.945,0.768s-0.545,0.217-0.891,0.217
		c-0.442,0-0.81-0.134-1.104-0.401S289.685,26.158,289.685,25.678z M290.763,25.496c0,0.262,0.075,0.473,0.225,0.633
		c0.165,0.188,0.39,0.281,0.675,0.281c0.191,0,0.366-0.041,0.524-0.123c0.159-0.082,0.443-0.262,0.854-0.539v-1.846
		c-0.386,0.105-0.754,0.225-1.104,0.357c-0.246,0.098-0.451,0.201-0.617,0.311s-0.287,0.22-0.362,0.331
		c-0.076,0.111-0.127,0.212-0.155,0.302S290.763,25.391,290.763,25.496z"/>
	<path fill="#FFFFFF" d="M298.585,24.169c0-0.476,0.078-0.909,0.234-1.303c0.156-0.394,0.364-0.715,0.623-0.964
		c0.259-0.25,0.551-0.441,0.875-0.576c0.323-0.134,0.661-0.201,1.014-0.201c0.352,0,0.692,0.067,1.021,0.201
		c0.328,0.135,0.623,0.326,0.882,0.576c0.26,0.249,0.468,0.57,0.625,0.964c0.157,0.394,0.235,0.827,0.235,1.303
		c0,0.481-0.077,0.919-0.232,1.311c-0.154,0.392-0.361,0.711-0.622,0.958c-0.26,0.246-0.554,0.436-0.882,0.566
		c-0.329,0.132-0.671,0.197-1.027,0.197c-0.356,0-0.696-0.065-1.02-0.197c-0.324-0.131-0.615-0.318-0.875-0.563
		s-0.466-0.564-0.62-0.958S298.585,24.65,298.585,24.169z M299.722,24.181c0,0.8,0.139,1.411,0.417,1.835
		c0.277,0.423,0.675,0.635,1.191,0.635c0.524,0,0.926-0.212,1.206-0.635c0.28-0.424,0.42-1.035,0.42-1.835
		c0-0.808-0.14-1.427-0.42-1.858c-0.28-0.431-0.682-0.646-1.206-0.646c-0.517,0-0.914,0.216-1.191,0.646
		C299.86,22.754,299.722,23.373,299.722,24.181z"/>
	<path fill="#FFFFFF" d="M304.925,29.451l0.972-0.168c0.016-0.881,0.024-1.528,0.024-1.941v-3.461c0-0.439-0.014-0.939-0.042-1.496
		l-0.955-0.105v-0.422l1.68-0.732l0.18,0.123l0.069,0.768c0.548-0.594,1.154-0.891,1.819-0.891c0.661,0,1.208,0.271,1.642,0.814
		c0.434,0.543,0.651,1.268,0.651,2.174c0,0.914-0.235,1.657-0.704,2.229s-1.06,0.858-1.771,0.858c-0.618,0-1.15-0.264-1.597-0.791
		v0.938c0,0.42,0.008,1.061,0.024,1.924l1.101,0.18v0.434h-3.094V29.451z M306.929,25.906c0.419,0.406,0.859,0.609,1.321,0.609
		c0.478,0,0.87-0.198,1.177-0.595s0.461-0.966,0.461-1.708c0-0.754-0.138-1.343-0.414-1.767s-0.639-0.636-1.089-0.636
		c-0.435,0-0.92,0.221-1.456,0.662V25.906z"/>
	<path fill="#FFFFFF" d="M311.798,29.451l0.972-0.168c0.016-0.881,0.024-1.528,0.024-1.941v-3.461c0-0.439-0.014-0.939-0.042-1.496
		l-0.955-0.105v-0.422l1.68-0.732l0.18,0.123l0.069,0.768c0.548-0.594,1.154-0.891,1.819-0.891c0.661,0,1.208,0.271,1.642,0.814
		c0.434,0.543,0.651,1.268,0.651,2.174c0,0.914-0.235,1.657-0.704,2.229s-1.06,0.858-1.771,0.858c-0.618,0-1.15-0.264-1.597-0.791
		v0.938c0,0.42,0.008,1.061,0.024,1.924l1.101,0.18v0.434h-3.094V29.451z M313.802,25.906c0.419,0.406,0.859,0.609,1.321,0.609
		c0.478,0,0.87-0.198,1.177-0.595s0.461-0.966,0.461-1.708c0-0.754-0.138-1.343-0.414-1.767s-0.639-0.636-1.089-0.636
		c-0.435,0-0.92,0.221-1.456,0.662V25.906z"/>
	<path fill="#FFFFFF" d="M318.917,24.169c0-0.476,0.078-0.909,0.234-1.303c0.156-0.394,0.364-0.715,0.623-0.964
		c0.259-0.25,0.551-0.441,0.875-0.576c0.323-0.134,0.661-0.201,1.014-0.201c0.352,0,0.692,0.067,1.021,0.201
		c0.328,0.135,0.623,0.326,0.882,0.576c0.26,0.249,0.468,0.57,0.625,0.964c0.157,0.394,0.235,0.827,0.235,1.303
		c0,0.481-0.077,0.919-0.232,1.311c-0.154,0.392-0.361,0.711-0.622,0.958c-0.26,0.246-0.554,0.436-0.882,0.566
		c-0.329,0.132-0.671,0.197-1.027,0.197c-0.356,0-0.696-0.065-1.02-0.197c-0.324-0.131-0.615-0.318-0.875-0.563
		s-0.466-0.564-0.62-0.958S318.917,24.65,318.917,24.169z M320.054,24.181c0,0.8,0.139,1.411,0.417,1.835
		c0.277,0.423,0.675,0.635,1.191,0.635c0.524,0,0.926-0.212,1.206-0.635c0.28-0.424,0.42-1.035,0.42-1.835
		c0-0.808-0.14-1.427-0.42-1.858c-0.28-0.431-0.682-0.646-1.206-0.646c-0.517,0-0.914,0.216-1.191,0.646
		C320.192,22.754,320.054,23.373,320.054,24.181z"/>
	<path fill="#FFFFFF" d="M325.526,25.424h0.609l0.292,1.033c0.284,0.129,0.622,0.193,1.013,0.193c0.444,0,0.78-0.083,1.008-0.25
		c0.228-0.166,0.342-0.391,0.342-0.677c0-0.243-0.089-0.442-0.266-0.602c-0.178-0.158-0.463-0.31-0.856-0.454l-0.555-0.193
		c-0.999-0.356-1.499-0.891-1.499-1.602c0-0.48,0.198-0.891,0.594-1.234c0.396-0.342,0.91-0.514,1.542-0.514
		c0.587,0,1.156,0.162,1.707,0.486l-0.058,1.227h-0.645l-0.193-0.963c-0.261-0.133-0.536-0.199-0.824-0.199
		c-0.358,0-0.634,0.077-0.827,0.232c-0.193,0.154-0.289,0.367-0.289,0.642c0,0.235,0.08,0.423,0.24,0.566
		c0.16,0.143,0.448,0.29,0.865,0.442l0.368,0.135c0.589,0.216,1.021,0.468,1.293,0.758c0.273,0.289,0.41,0.629,0.41,1.02
		c0,0.481-0.209,0.891-0.627,1.227c-0.417,0.336-1.002,0.504-1.754,0.504c-0.615,0-1.229-0.152-1.844-0.457L325.526,25.424z"/>
	<path fill="#FFFFFF" d="M330.729,24.225c0-0.898,0.268-1.64,0.805-2.224s1.188-0.876,1.953-0.876c0.645,0,1.18,0.211,1.607,0.633
		c0.426,0.422,0.64,0.988,0.64,1.697c0,0.25-0.028,0.466-0.083,0.646h-3.843c0.012,0.73,0.191,1.3,0.537,1.708
		c0.347,0.408,0.815,0.612,1.406,0.612c0.357,0,0.667-0.071,0.929-0.214c0.261-0.143,0.512-0.353,0.751-0.63l0.291,0.229
		c-0.232,0.441-0.543,0.784-0.935,1.028s-0.852,0.366-1.382,0.366c-0.812,0-1.461-0.268-1.947-0.803S330.729,25.139,330.729,24.225z
		 M331.831,23.609h2.184c0.266,0,0.451-0.055,0.555-0.166c0.104-0.109,0.156-0.264,0.156-0.461c0-0.351-0.126-0.656-0.379-0.916
		c-0.252-0.261-0.562-0.391-0.93-0.391c-0.384,0-0.729,0.16-1.034,0.479C332.078,22.475,331.894,22.959,331.831,23.609z
		 M332.741,20.105l1.045-1.664c0.219-0.344,0.444-0.516,0.675-0.516c0.125,0,0.234,0.039,0.324,0.117s0.136,0.189,0.136,0.334
		c0,0.199-0.145,0.424-0.435,0.674l-1.428,1.283L332.741,20.105z"/>
	<path fill="#FFFFFF" d="M336.847,25.424h0.609l0.292,1.033c0.284,0.129,0.622,0.193,1.013,0.193c0.444,0,0.78-0.083,1.008-0.25
		c0.228-0.166,0.342-0.391,0.342-0.677c0-0.243-0.089-0.442-0.266-0.602c-0.178-0.158-0.463-0.31-0.856-0.454l-0.555-0.193
		c-0.999-0.356-1.499-0.891-1.499-1.602c0-0.48,0.198-0.891,0.594-1.234c0.396-0.342,0.91-0.514,1.542-0.514
		c0.587,0,1.156,0.162,1.707,0.486l-0.058,1.227h-0.645l-0.193-0.963c-0.261-0.133-0.536-0.199-0.824-0.199
		c-0.358,0-0.634,0.077-0.827,0.232c-0.193,0.154-0.289,0.367-0.289,0.642c0,0.235,0.08,0.423,0.24,0.566
		c0.16,0.143,0.448,0.29,0.865,0.442l0.368,0.135c0.589,0.216,1.021,0.468,1.293,0.758c0.273,0.289,0.41,0.629,0.41,1.02
		c0,0.481-0.209,0.891-0.627,1.227c-0.417,0.336-1.002,0.504-1.754,0.504c-0.615,0-1.229-0.152-1.844-0.457L336.847,25.424z"/>
	<path fill="#FFFFFF" d="M342.196,26.346c0-0.242,0.082-0.446,0.246-0.612s0.365-0.249,0.604-0.249s0.44,0.083,0.606,0.249
		s0.249,0.37,0.249,0.612c0,0.234-0.083,0.436-0.249,0.604s-0.368,0.252-0.606,0.252s-0.439-0.084-0.604-0.252
		S342.196,26.58,342.196,26.346z"/>
</g>
</svg>
